<?xml version="1.0" encoding="iso-8859-1"?>
<!-- Generator: Adobe Illustrator 19.0.0, SVG Export Plug-In . SVG Version: 6.00 Build 0)  -->
<svg version="1.1" id="Layer_1" xmlns="http://www.w3.org/2000/svg" xmlns:xlink="http://www.w3.org/1999/xlink" x="0px" y="0px"
	 viewBox="0 0 502 502" style="enable-background:new 0 0 502 502;" xml:space="preserve">
<g>
	<g>
		<path d="M455.058,199.915L258.071,2.929c-3.905-3.905-10.237-3.905-14.143,0L46.943,199.915c-2.86,2.86-3.715,7.161-2.167,10.898
			s5.194,6.173,9.239,6.173h22.715V492c0,5.523,4.477,10,10,10h119.564h89.413h119.564c5.523,0,10-4.477,10-10V216.987h22.715
			c4.044,0,7.691-2.437,9.239-6.173S457.918,202.776,455.058,199.915z M251,24.142l172.844,172.844h-8.573H86.729h-8.573L251,24.142
			z M216.294,482V356.582h69.413V482H216.294z M405.271,482h-99.564V346.582c0-5.523-4.477-10-10-10h-89.413
			c-5.523,0-10,4.477-10,10V482H96.729V216.987h308.542V482z"/>
		<path d="M125.198,254.693h196.501c5.523,0,10-4.477,10-10s-4.477-10-10-10H125.198c-5.523,0-10,4.477-10,10
			S119.675,254.693,125.198,254.693z"/>
		<path d="M358.088,254.693h18.714c5.523,0,10-4.477,10-10s-4.477-10-10-10h-18.714c-5.523,0-10,4.477-10,10
			S352.565,254.693,358.088,254.693z"/>
		<path d="M235.405,396.885c-5.523,0-10,4.477-10,10v15.595c0,5.523,4.477,10,10,10s10-4.477,10-10v-15.595
			C245.405,401.362,240.928,396.885,235.405,396.885z"/>
	</g>
</g>
<g>
</g>
<g>
</g>
<g>
</g>
<g>
</g>
<g>
</g>
<g>
</g>
<g>
</g>
<g>
</g>
<g>
</g>
<g>
</g>
<g>
</g>
<g>
</g>
<g>
</g>
<g>
</g>
<g>
</g>
</svg>
