<svg width="0" height="0" class="hidden"><symbol fill="none" xmlns="http://www.w3.org/2000/svg" viewBox="0 0 24 24" id="setting"><path d="M18.48 18.5368H21M4.68 12L3 12.044M4.68 12C4.68 13.3255 5.75451 14.4 7.08 14.4C8.40548 14.4 9.48 13.3255 9.48 12C9.48 10.6745 8.40548 9.6 7.08 9.6C5.75451 9.6 4.68 10.6745 4.68 12ZM10.169 12.0441H21M12.801 5.55124L3 5.55124M21 5.55124H18.48M3 18.5368H12.801M17.88 18.6C17.88 19.9255 16.8055 21 15.48 21C14.1545 21 13.08 19.9255 13.08 18.6C13.08 17.2745 14.1545 16.2 15.48 16.2C16.8055 16.2 17.88 17.2745 17.88 18.6ZM17.88 5.4C17.88 6.72548 16.8055 7.8 15.48 7.8C14.1545 7.8 13.08 6.72548 13.08 5.4C13.08 4.07452 14.1545 3 15.48 3C16.8055 3 17.88 4.07452 17.88 5.4Z" stroke-width="1" stroke-linecap="round"></path></symbol>
<symbol version="1.1" id="settings" xmlns="http://www.w3.org/2000/svg" xmlns:xlink="http://www.w3.org/1999/xlink" x="0px" y="0px" xml:space="preserve" viewBox="0 0 475.739 475.739"><g><path d="M112.672,193.189c5.535,0,11.003-0.579,16.37-1.7l13.934,33.638l27.717-11.48l-13.932-33.634
		c9.298-6.069,17.186-13.968,23.254-23.284l33.655,13.941l11.48-27.717l-33.655-13.941c2.297-10.878,2.305-22.041,0.021-32.907
		l33.634-13.932l-11.48-27.717l-33.623,13.927c-6.131-9.391-14.086-17.278-23.277-23.292l13.923-33.612L142.976,0l-13.935,33.642
		c-5.366-1.112-10.899-1.704-16.54-1.704c-5.535,0-11.003,0.579-16.37,1.7L82.197,0L54.48,11.48l13.938,33.649
		c-9.445,6.182-17.29,14.153-23.246,23.275L11.503,54.458L0.023,82.174L33.691,96.12c-2.239,10.661-2.328,21.845-0.02,32.895
		L0.023,142.953l11.48,27.717l33.623-13.927c6.131,9.391,14.086,17.278,23.277,23.292L54.48,213.647l27.717,11.48l13.935-33.642
		C101.498,192.598,107.031,193.189,112.672,193.189z M65.844,93.202c5.183-12.511,14.902-22.246,27.37-27.41
		c6.174-2.558,12.664-3.854,19.288-3.854c20.601,0,38.993,12.268,46.857,31.252c5.164,12.467,5.154,26.224-0.028,38.735
		s-14.902,22.246-27.37,27.41c-6.174,2.558-12.664,3.854-19.288,3.854c-20.601,0-38.993-12.268-46.857-31.252
		C60.651,119.47,60.661,105.713,65.844,93.202z"></path><path d="M465.181,170.069l-9.047-19.435l-69.999,69.999l-26.517-26.517l70-70l-19.436-9.047
		c-14.87-6.922-31.439-10.581-47.915-10.581c-30.314,0-58.814,11.805-80.249,33.241c-31.059,31.058-41.188,77.417-26.707,118.266
		L118.823,392.497c-9.214,9.183-14.296,21.412-14.311,34.434c-0.015,13.04,5.049,25.299,14.264,34.523
		c9.212,9.212,21.456,14.285,34.477,14.285c13.03,0,25.281-5.077,34.492-14.293l136.509-136.515
		c12.155,4.297,25.115,6.541,38.018,6.542c30.316,0,58.814-11.805,80.25-33.24C476.12,264.635,485.226,213.13,465.181,170.069z
		 M421.308,277.019c-15.77,15.769-36.733,24.454-59.031,24.454c-12.14,0-24.332-2.691-35.265-7.781l-9.516-4.43L166.528,440.236
		c-3.547,3.549-8.261,5.503-13.275,5.503c-5.007,0-9.718-1.953-13.258-5.493c-3.541-3.545-5.488-8.262-5.482-13.282
		c0.005-5.002,1.955-9.697,5.506-13.237l150.966-150.98l-4.429-9.515c-14.745-31.679-8.043-69.57,16.676-94.29
		c15.77-15.769,36.735-24.454,59.036-24.454c4.5,0,9.007,0.37,13.456,1.095l-58.531,58.532l68.942,68.943l58.534-58.535
		C448.868,230.576,440.543,257.785,421.308,277.019z"></path></g><g></g><g></g><g></g><g></g><g></g><g></g><g></g><g></g><g></g><g></g><g></g><g></g><g></g><g></g><g></g></symbol></svg>